<svg xmlns="http://www.w3.org/2000/svg" viewBox="0 0 220 169"><defs><style>.a,.c{fill:#36c7d6;}.a{opacity:0.15;}.b{fill:#9ce3eb;}.b,.d,.e{stroke:#36c7d6;stroke-miterlimit:10;stroke-width:2px;}.d{fill:#fff;}.e{fill:none;stroke-linecap:round;}</style></defs><title>404-icon-3</title><ellipse class="a" cx="111" cy="162" rx="49.5" ry="7"/><rect class="b" x="1" y="1" width="218" height="134" rx="4" ry="4"/><circle class="c" cx="110" cy="5" r="1"/><rect class="d" x="9" y="9" width="202" height="118"/><circle class="c" cx="94.75" cy="62.22" r="3.21"/><circle class="c" cx="125.25" cy="62.22" r="3.21"/><path class="e" d="M859.43,233.12a8.54,8.54,0,0,1,6.26-.85,9.06,9.06,0,0,1,5.54,4" transform="translate(-741 -181)"/><path class="e" d="M842.57,233.12a8.54,8.54,0,0,0-6.26-.85,9.06,9.06,0,0,0-5.54,4" transform="translate(-741 -181)"/><path class="e" d="M841.52,266a2.41,2.41,0,0,1-2.7-3.12,12.75,12.75,0,0,1,24.35,0,2.41,2.41,0,0,1-2.7,3.12A46.95,46.95,0,0,0,841.52,266Z" transform="translate(-741 -181)"/><line class="e" x1="22" y1="31" x2="31" y2="22"/><line class="e" x1="39.41" y1="23.59" x2="43.9" y2="19.1"/><line class="e" x1="19.1" y1="43.9" x2="35.39" y2="27.61"/><path class="d" d="M877.16,335.81c-2.11-2-2.92-5.87-3.16-7.86V316H828v11.95c-0.23,2-1,5.87-3.16,7.86-1.63,1.54-6.57,5-6.57,6.45,0,2.35,8.33,1.64,12,1.64h41.53c3.64,0,12,.7,12-1.64C883.73,340.83,878.79,337.35,877.16,335.81Z" transform="translate(-741 -181)"/><rect class="a" x="87" y="135" width="46" height="6"/></svg>